<?xml version="1.0" encoding="utf-8"?>
<!-- Generator: Adobe Illustrator 18.0.0, SVG Export Plug-In . SVG Version: 6.00 Build 0)  -->
<!DOCTYPE svg PUBLIC "-//W3C//DTD SVG 1.1//EN" "http://www.w3.org/Graphics/SVG/1.1/DTD/svg11.dtd">
<svg version="1.1" id="Layer_1" xmlns="http://www.w3.org/2000/svg" xmlns:xlink="http://www.w3.org/1999/xlink" x="0px" y="0px"
	 viewBox="0 0 270 250" enable-background="new 0 0 270 250" xml:space="preserve">
<g>
	<path fill="#B9A7D1" d="M134.7,129.8l-1.9,0.1c-1,0-2.1,0.1-3.1,0.1c-9.5,0.3-19.1,0.5-28.6,0.8c-4.8,0.1-9.7,0.3-14.5,0.4
		c-2.4,0.1-8.5,1.1-10.3-0.4c-0.8-0.7-0.9-3.4-1.1-4.4c-0.5-3.3-0.2-6.7-0.2-10c0-2.8,0.4-6-0.2-8.7c-0.6-2.6-1.7-2.9-4.2-3.5
		c-3.7-0.9-8.5-0.9-11.5,1.8c-3.3,2.9-5.6,7-8.2,10.6c-2.3,3.1-4.4,6.4-6.4,9.8c-1.2,2-2.3,4.2-3.3,6.2c-1.6,3.3-1.6,6.9-2.7,10.2
		c-1.2,3.4-3.5,6.7-5.2,10c-1.4,2.7-2.8,6.3-4.8,8.6c-3.1,3.7-8.9,5.1-12.9,7.6c-3.4,2.2-11,4.9-7.4,9.8c2.6,3.5,7.3,6.1,11,8.2
		c6.4,3.7,20.6,11.8,28.1,6.6c0,0,0,0,0.1,0l-0.1,0.3l13.1-8c0,0,47.3,1.4,40.5-37.3l24-0.7C124.6,147.9,135.1,145.8,134.7,129.8z"
		/>
	
		<path fill="#FFFFFF" stroke="#562894" stroke-width="1.9948" stroke-linecap="round" stroke-linejoin="round" stroke-miterlimit="10" d="
		M117.1,125.9"/>
	
		<path fill="none" stroke="#562894" stroke-width="1.9948" stroke-linecap="round" stroke-linejoin="round" stroke-miterlimit="10" d="
		M117.3,67.5l15-9.9c0.5-0.3,1.2-0.2,1.5,0.3l9.5,15"/>
	
		<path fill="#FFFFFF" stroke="#562894" stroke-width="1.9948" stroke-linecap="round" stroke-linejoin="round" stroke-miterlimit="10" d="
		M147.8,78.5"/>
	
		<path fill="none" stroke="#562894" stroke-width="1.9948" stroke-linecap="round" stroke-linejoin="round" stroke-miterlimit="10" d="
		M92.1,82.5l6.7-19.8c0.2-0.6,0.8-0.9,1.3-0.7l35.1,12.2"/>
	
		<path fill="none" stroke="#562894" stroke-width="1.9948" stroke-linecap="round" stroke-linejoin="round" stroke-miterlimit="10" d="
		M118.2,82.9l-0.8-5.2c-0.1-0.6,0.3-1.1,0.9-1.2l24.5-3.2"/>
	
		<path fill="none" stroke="#562894" stroke-width="1.9948" stroke-linecap="round" stroke-linejoin="round" stroke-miterlimit="10" d="
		M203.8,100.2c3.8-2.2,6.5-3.9,6.6-3.9c6.9-4.1,11.5-14.1,9-21.3l15.8-8.9"/>
	
		<path fill="none" stroke="#562894" stroke-width="1.9948" stroke-linecap="round" stroke-linejoin="round" stroke-miterlimit="10" d="
		M210.8,43l-6.8,4.4l4.2,4c-2.8-2.2-5.6-5.4-8-6.3c-3.7-1.4-7.3-1.2-11.4,1.2c-2.6,1.5-5.2,3-7.7,4.5c-0.2,0.1-0.3,0.2-0.5,0.3
		l-37.8,22.2c-2.4,1.4-3.2,4.5-1.8,6.9l0.7,1.2c0.9,1.5,2.4,2.4,4,2.5"/>
	
		<line fill="#FFFFFF" stroke="#562894" stroke-width="1.9948" stroke-linecap="round" stroke-linejoin="round" stroke-miterlimit="10" x1="167.9" y1="84.9" x2="177.6" y2="78.7"/>
	
		<line fill="#FFFFFF" stroke="#562894" stroke-width="1.9948" stroke-linecap="round" stroke-linejoin="round" stroke-miterlimit="10" x1="146.5" y1="83.6" x2="176.5" y2="66"/>
	
		<path fill="none" stroke="#562894" stroke-width="1.9948" stroke-linecap="round" stroke-linejoin="round" stroke-miterlimit="10" d="
		M75.2,105.7c-3.6-0.9-6.9-1.5-9.4-1.9c-15.2-2.1-35.5,55.6-35.5,55.6l-24.6,15"/>
	
		<path fill="#B9A7D1" stroke="#562894" stroke-width="1.9948" stroke-linecap="round" stroke-linejoin="round" stroke-miterlimit="10" d="
		M128.6,130.1"/>
	
		<path fill="#FFFFFF" stroke="#562894" stroke-width="1.9948" stroke-linecap="round" stroke-linejoin="round" stroke-miterlimit="10" d="
		M97.7,174.7"/>
	
		<path fill="#FFFFFF" stroke="#562894" stroke-width="1.9948" stroke-linecap="round" stroke-linejoin="round" stroke-miterlimit="10" d="
		M97.6,145.1"/>
	
		<path fill="#FFFFFF" stroke="#562894" stroke-width="1.9948" stroke-linecap="round" stroke-linejoin="round" stroke-miterlimit="10" d="
		M104,148.7"/>
	
		<path fill="none" stroke="#562894" stroke-width="1.9948" stroke-linecap="round" stroke-linejoin="round" stroke-miterlimit="10" d="
		M156.7,143.8"/>
	
		<path fill="none" stroke="#562894" stroke-width="1.9948" stroke-linecap="round" stroke-linejoin="round" stroke-miterlimit="10" d="
		M156.7,143.8v19.7c0,0.9-0.8,1.7-1.7,1.7H76.9c-0.9,0-1.7-0.8-1.7-1.7V85.3c0-0.9,0.8-1.4,1.7-1.4H155c0.9,0,1.7,0.4,1.7,1.4"/>
	
		<path fill="#B9A7D1" stroke="#562894" stroke-width="1.9948" stroke-linecap="round" stroke-linejoin="round" stroke-miterlimit="10" d="
		M47,193.7l13.1-8c0,0,47.3,1.4,40.5-37.3l24-0.7c0,0,10.6-2.9,10.1-18.9c0,0-55.1,2.3-55.1,2.4c-14.8,1.1-12.1,1.1-20.2,9.3"/>
	
		<line fill="none" stroke="#562894" stroke-width="1.9948" stroke-linecap="round" stroke-linejoin="round" stroke-miterlimit="10" x1="98.1" y1="101.6" x2="142.3" y2="101.6"/>
	
		<line fill="none" stroke="#562894" stroke-width="1.9948" stroke-linecap="round" stroke-linejoin="round" stroke-miterlimit="10" x1="98.1" y1="118.8" x2="127.6" y2="118.8"/>
	
		<line fill="none" stroke="#562894" stroke-width="1.9948" stroke-linecap="round" stroke-linejoin="round" stroke-miterlimit="10" x1="88.3" y1="97.1" x2="88.3" y2="105.6"/>
	
		<path fill="none" stroke="#562894" stroke-width="1.9948" stroke-linecap="round" stroke-linejoin="round" stroke-miterlimit="10" d="
		M85.5,115.5c-0.9-1.7,3.6-4.3,3.3-0.4c-0.2,2.6-1.8,5.3-3.3,7.3l4.2,0"/>
	<path fill="#B9A7D1" d="M179.9,133.8c0,0-6.6-1.2-6.2-15l1.6,0c0,0,17.2,0.5,30.6,0.9l-6.4-40.6L139,88.6l8.8,56.4l33.5-5.3
		L179.9,133.8z"/>
	
		<polyline fill="none" stroke="#562894" stroke-width="1.9948" stroke-linecap="round" stroke-linejoin="round" stroke-miterlimit="10" points="
		180.9,140.6 147.9,145.8 139,89.3 199.5,79.8 205.8,119.8 	"/>
	
		<path fill="none" stroke="#562894" stroke-width="1.9948" stroke-linecap="round" stroke-linejoin="round" stroke-miterlimit="10" d="
		M202.8,145.5c-4.1,4-11.1,1.4-11.7-4.2"/>
	
		<path fill="none" stroke="#562894" stroke-width="1.9948" stroke-linecap="round" stroke-linejoin="round" stroke-miterlimit="10" d="
		M203.7,104.9c10.6-3.2,22.8-6.7,29.3-7.6c13.1-1.8,30.5,47.9,30.5,47.9l9.4,6.3"/>
	
		<path fill="none" stroke="#562894" stroke-width="1.9948" stroke-linecap="round" stroke-linejoin="round" stroke-miterlimit="10" d="
		M193.5,136c-0.3,3.8-3.7,6.6-7.4,6.3c-3.8-0.3-6.6-3.7-6.3-7.4"/>
	
		<path fill="#FFFFFF" stroke="#562894" stroke-width="1.9948" stroke-linecap="round" stroke-linejoin="round" stroke-miterlimit="10" d="
		M200.5,153.1"/>
	
		<path fill="#FFFFFF" stroke="#562894" stroke-width="1.9948" stroke-linecap="round" stroke-linejoin="round" stroke-miterlimit="10" d="
		M200.6,127.7"/>
	
		<path fill="#FFFFFF" stroke="#562894" stroke-width="1.9948" stroke-linecap="round" stroke-linejoin="round" stroke-miterlimit="10" d="
		M195.1,130.7"/>
	
		<path fill="none" stroke="#562894" stroke-width="1.9948" stroke-linecap="round" stroke-linejoin="round" stroke-miterlimit="10" d="
		M249.3,174.7l-11.3-6.9c0,0-40.8,1.2-34.9-32.1l-20.6-0.6c0,0-9.1-1.9-8.7-15.6l1.6,0c0,0,45.8,1.3,45.9,1.3
		c13,0.4,26.6,12.2,29.9,19.5"/>
</g>
</svg>
