<?xml version="1.0" encoding="utf-8"?>
<!-- Generator: Adobe Illustrator 24.2.1, SVG Export Plug-In . SVG Version: 6.00 Build 0)  -->
<svg version="1.1" id="Layer_1" xmlns="http://www.w3.org/2000/svg" xmlns:xlink="http://www.w3.org/1999/xlink" x="0px" y="0px"
	 viewBox="0 0 951 951" style="enable-background:new 0 0 951 951;" xml:space="preserve">
<style type="text/css">
	.st0{fill:#606060;}
	.st1{fill:#D845AF;}
	.st2{fill:#FFB8EB;}
	.st3{fill:none;stroke:#FFB8EB;stroke-width:11.6456;stroke-linecap:round;}
</style>
<rect class="st0" width="951" height="951"/>
<path class="st1" d="M377.2,669.8c52,0,94.2-42.2,94.2-94.2l0,0c0-52-42.2-94.2-94.2-94.2l0,0c-52,0-94.2,42.2-94.2,94.2v94.2H377.2
	z"/>
<path class="st1" d="M471.4,377.2c0-52-42.2-94.2-94.2-94.2l0,0c-52,0-94.2,42.2-94.2,94.2l0,0c0,52,42.2,94.2,94.2,94.2h94.2V377.2
	z"/>
<path class="st1" d="M481,575.6c0,52,42.2,94.2,94.2,94.2l0,0c52,0,94.2-42.2,94.2-94.2l0,0c0-52-42.2-94.2-94.2-94.2H481V575.6z"/>
<path class="st1" d="M575.2,283c-52,0-94.2,42.2-94.2,94.2l0,0c0,52,42.2,94.2,94.2,94.2l0,0c52,0,94.2-42.2,94.2-94.2V283H575.2z"
	/>
<ellipse class="st2" cx="355.9" cy="361.3" rx="8.4" ry="8.3"/>
<ellipse class="st2" cx="399.3" cy="361.3" rx="8.4" ry="8.3"/>
<path class="st3" d="M407.7,390.4c-14.1,15.9-46.2,15.9-60.2,0"/>
<ellipse class="st2" cx="559.3" cy="399.3" rx="8.3" ry="8.4"/>
<ellipse class="st2" cx="559.3" cy="355.9" rx="8.3" ry="8.4"/>
<path class="st3" d="M588.3,347.5c15.9,14.1,15.9,46.2,0,60.2"/>
<ellipse class="st2" cx="596.4" cy="591" rx="8.4" ry="8.3"/>
<ellipse class="st2" cx="553" cy="591" rx="8.4" ry="8.3"/>
<path class="st3" d="M544.5,562c14.1-15.9,46.2-15.9,60.2,0"/>
<ellipse class="st2" cx="393.9" cy="553" rx="8.3" ry="8.4"/>
<ellipse class="st2" cx="393.9" cy="596.4" rx="8.3" ry="8.4"/>
<path class="st3" d="M364.9,604.8c-15.9-14.1-15.9-46.2,0-60.2"/>
</svg>
