<svg width="1000" height="1000" viewBox="0 0 1000 1000" fill="none" xmlns="http://www.w3.org/2000/svg">
<g clip-path="url(#clip0)">
<rect width="1000" height="1000" fill="#FFD525"/>
<path d="M-2570 -125.671C-2545.2 -67.824 -2027.17 39.6053 -1431.99 111.225C-1732.33 133.262 -1985.84 196.617 -2049.21 309.556C-2068.5 342.611 -2065.74 372.912 -2046.46 400.458C-1994.1 472.077 -1795.71 527.169 -1396.16 488.605C-1927.97 678.672 -2258.63 1009.22 -2302.72 1221.33C-2319.25 1295.7 -2299.96 1353.55 -2247.61 1389.36C-2148.41 1458.22 -1950.01 1425.17 -1677.22 1303.97C-1963.79 1505.05 -1958.28 1538.11 -1958.28 1557.39C-1955.53 1568.41 -1950.01 1576.67 -1938.99 1582.18C-1859.08 1615.24 -1250.12 1284.68 -759.65 923.831C-985.599 1226.84 -1029.69 1549.13 -971.821 1706.14C-944.266 1786.02 -894.668 1830.09 -831.292 1830.09H-825.781C-740.361 1830.09 -641.164 1752.97 -541.967 1609.73C-632.898 1854.89 -621.876 1868.66 -613.61 1879.68C-605.343 1887.94 -597.077 1890.7 -586.055 1890.7C-575.033 1887.94 -544.723 1882.43 -387.661 1532.6C-318.774 1381.09 -252.643 1218.57 -194.778 1061.56C-203.044 1472 25.6604 1887.94 199.255 2017.41C279.164 2080.76 334.273 2069.74 364.584 2047.71C436.226 2000.88 447.248 1854.89 427.96 1681.35C549.2 1967.82 675.952 2031.18 753.105 2036.69C844.036 2044.95 929.456 1978.84 981.81 1860.4C1078.25 1640.03 1061.72 1295.7 874.346 992.697C1069.98 1166.24 1232.56 1303.97 1329 1383.85C1654.15 1653.8 1670.68 1648.29 1687.21 1645.54C1695.48 1642.78 1700.99 1634.52 1703.74 1626.25C1706.5 1612.48 1709.26 1598.71 1475.04 1392.11C1681.7 1513.32 1838.76 1560.14 1926.94 1518.82C1968.27 1499.54 1990.31 1458.22 1990.31 1405.89C1984.8 1257.14 1780.9 978.924 1364.82 736.519C1794.67 863.23 2114.31 877.003 2196.97 802.629C2216.26 786.102 2224.53 761.31 2216.26 739.274C2194.22 659.39 2009.6 571.243 1714.77 491.36C2298.93 529.924 2717.76 441.777 2797.67 334.348C2814.2 309.556 2816.96 284.765 2803.18 259.974C2764.6 188.354 2585.5 141.526 2296.17 122.244C2502.83 100.207 2511.1 83.6793 2516.61 72.6609C2519.36 64.3971 2519.36 53.3787 2513.85 45.1149C2483.54 3.79596 2100.53 3.79595 1871.83 6.55053C1615.57 12.0597 1362.07 23.0781 1138.87 42.3603C1356.55 -34.7684 1538.42 -147.707 1574.24 -279.928C1585.26 -326.756 1574.24 -368.075 1538.42 -395.621C1508.11 -420.412 1400.64 -472.75 1111.32 -368.075C1461.26 -627.007 1637.61 -913.485 1626.59 -1048.46C1623.84 -1087.02 1601.79 -1117.33 1568.73 -1128.34C1483.31 -1161.4 1326.24 -1078.76 1116.83 -902.467C1216.03 -1048.46 1249.09 -1158.64 1213.27 -1227.51C1185.72 -1279.85 1122.34 -1304.64 1028.65 -1290.87C777.905 -1255.06 386.628 -987.86 221.299 -615.989C199.255 -1040.2 -117.624 -1483.69 -371.128 -1626.93C-426.237 -1659.98 -470.325 -1671 -506.146 -1671C-541.967 -1671 -566.766 -1657.23 -583.299 -1643.45C-643.92 -1588.36 -646.675 -1461.65 -594.321 -1268.83C-690.763 -1425.84 -776.182 -1502.97 -845.069 -1494.71C-880.89 -1491.95 -930.489 -1464.41 -955.288 -1354.22C-1010.4 -1098.04 -897.423 -514.069 -616.365 -200.045C-996.62 -370.83 -1401.68 -417.658 -1484.34 -359.811C-1500.87 -348.793 -1509.14 -332.265 -1506.38 -315.738C-1500.87 -282.683 -1451.27 -244.118 -1357.59 -200.045C-1611.09 -252.382 -1823.26 -282.683 -1952.77 -296.456C-2071.26 -310.229 -2465.29 -351.548 -2520.4 -296.456C-2528.66 -285.437 -2531.42 -271.664 -2525.91 -260.646C-2517.64 -233.1 -2443.24 -200.045 -2299.96 -161.48C-2545.2 -183.517 -2558.97 -164.235 -2567.24 -153.217C-2572.75 -144.953 -2575.51 -133.934 -2570 -125.671Z" fill="#FFD525"/>
</g>
<defs>
<clipPath id="clip0">
<rect width="1000" height="1000" fill="white"/>
</clipPath>
</defs>
</svg>
