<svg xmlns="http://www.w3.org/2000/svg" viewBox="0 0 1141 500" fill="currentColor"><path d="M1250 31c-143 247-219 245-238 239-43-14-61-99-48-235a7 7 0 00-15-1c-12 138-55 222-119 236-79 17-183-72-280-239a7 7 0 00-12 7c88 153 101 307 34 423S365 643 188 643a7 7 0 100 15c177 0 317 66 384 182s54 270-34 424a7 7 0 1012 7c97-167 203-256 285-239 68 14 114 98 130 236a7 7 0 008 7c4-1 7-4 7-8-16-136-2-222 38-235 18-6 90-7 232 239a7 7 0 0010 3c4-2 5-7 3-10-89-153-101-308-34-424 66-115 206-182 383-182a7 7 0 100-14c-177 0-317-67-384-183-66-115-54-270 34-423a7 7 0 10-12-7z"/></svg>